<?xml version="1.0" encoding="UTF-8" standalone="no"?>
<svg xmlns:rdf="http://www.w3.org/1999/02/22-rdf-syntax-ns#" xmlns="http://www.w3.org/2000/svg" xml:space="preserve" height="168.13" viewBox="0 0 193.39319 168.13275" width="193.39" version="1.1" xmlns:cc="http://creativecommons.org/ns#" xmlns:dc="http://purl.org/dc/elements/1.1/"><g transform="matrix(1.25 0 0 -1.25 -14.29 701.59)"><g><g><path d="m29.113 88.338c-0.259-0.009-0.473 0.035-0.609 0.154-0.546 0.479 2.767 6.493 4.988 10.731 2.308-2.939 8.922-4.838 9.94-5.118-2.313 0.228-10.685-4.248-11.614-4.793-0.743-0.434-1.928-0.947-2.705-0.974zm135.63 0c-0.78 0.027-1.96 0.54-2.71 0.974-0.93 0.545-9.3 5.021-11.61 4.793 1.02 0.28 7.63 2.179 9.94 5.118 2.22-4.238 5.53-10.252 4.99-10.731-0.14-0.119-0.35-0.163-0.61-0.154z" transform="matrix(.8 0 0 -.8 11.432 561.27)" fill="#0058a9"/><path d="m40.189 1.707l-0.367 35.479c-0.473 17.42 6.893 35.892 6.893 35.892 13.278 35.172 46.563 53.432 49.754 55.112v0.33s0.264-0.14 0.304-0.16c0.041 0.02 0.305 0.16 0.305 0.16v-0.33c3.192-1.68 36.472-19.94 49.752-55.112 0 0 7.37-18.472 6.89-35.892l-0.36-35.479h-56.282-0.609-56.28zm-9.543 71.434c-0.481-0.017-0.728 0.045-0.728 0.045-3.935 0-14.813 8.068-14.813 8.068-8.9883 4.262-10.199 0.63-12.957 6.162-2.3746 5.944 4.2465 9.164 4.2465 9.164s4.5695-4.28 9.3695-6.559c1.585 0.529 4.494 3.714 5.004 4.573l-7.338 3.455c12.368 34.011 35.348 50.311 57.25 56.311v0.01c5.262 1.63 6.739 1.76 15.205 3.86 0.515 0.16 0.901 0.3 0.195 1.77-1.524 2.76 0.89 3.86 2.443 4.82 2.199 1.19 4.795 1.92 7.532 1.97v0.01c0.023 0 0.046-0.01 0.07-0.01s0.049 0.01 0.072 0.01v-0.01h1.444v0.01c0.023 0 0.046-0.01 0.07-0.01 0.025 0 0.048 0.01 0.072 0.01v-0.01c2.737-0.05 5.337-0.78 7.537-1.97 1.55-0.96 3.96-2.06 2.44-4.82-0.71-1.47-0.32-1.61 0.2-1.77 8.46-2.1 9.94-2.23 15.2-3.86v-0.01c21.9-6 44.88-22.3 57.25-56.311l-7.34-3.455c0.51-0.859 3.42-4.044 5-4.573 4.8 2.279 9.38 6.559 9.38 6.559s6.62-3.22 4.24-9.164c-2.76-5.532-3.97-1.9-12.96-6.162 0 0-10.88-8.068-14.81-8.068 0 0-3.97-0.986-10.97 6.023-3.07 3.061-7.13 7.708-6.18 12.363 1.37 6.329 14.66-1.902 14.66-1.902 6.31-3.789 3.05 1.236 3.05 1.236-12.86 28.464-30.63 41.744-48.89 45.854-5.78 1.43-8.06 1.83-12.82 3.33-2.3 0.78-2.09 2.42-0.74 3.77 0.71 0.84 1.94 1.43 1.01 2.61-1.42 1.42-3.966 2.03-5.849 2.03-1.967 0-4.972-0.61-6.396-2.03-0.928-1.18 0.302-1.77 1.01-2.61 1.347-1.35 1.564-2.99-0.735-3.77-4.757-1.5-7.04-1.9-12.824-3.33-18.255-4.11-36.024-17.39-48.883-45.854 0 0-3.265-5.025 3.043-1.236 0 0 13.292 8.231 14.664 1.902 0.945-4.655-3.118-9.302-6.179-12.363-5.257-5.257-8.801-6.017-10.245-6.068z" transform="matrix(.8 0 0 -.8 11.432 561.27)" fill="#abe1fa"/><path d="m39.568 2.668v42.799c1.507 19.065 8.688 33.674 8.688 33.674l48.291-48.313s36.713 36.59 48.233 48.438c10.04-24.957 9.02-40.946 9.02-40.946l-0.42-35.652h-113.81zm57.518 60.271l-35.387 35.944s14.045 18.637 35.373 29.587c6.598-3.37 23.458-14.71 35.668-29.587-14.03-14.594-35.654-35.944-35.654-35.944z" transform="matrix(.8 0 0 -.8 11.432 561.27)" stroke="#000" stroke-width="1.25" fill="#0058a9"/></g><path d="m30.158 495.1s1.931 0.849 4.193 3.111c3.535-4.245-7.325-7.729-7.325-7.729s-1.534-0.432-3.101-1.277m10.02 13.258s-5.82-1.962-4.193-7.238c1.974-4.018 7.109 0.476 4.599 2.986m-6.428-12.665s1.521 0.52 2.729 1.729c1.088 1.087 2.258 4.516 4.666 3.283m11.97-4.356s-2.312-0.364-4.875-1.539c-2.564-1.174-4.177-2.788-4.177-2.788m109.66 13.225s-1.931 0.849-4.193 3.111c-3.537-4.245 7.324-7.729 7.324-7.729s1.791-0.374 3.359-1.467m-10.196 13.366s5.738-1.88 4.112-7.156c-1.974-4.018-7.11 0.476-4.599 2.986m6.578-12.794s-1.671 0.467-2.879 1.858c-1.01 1.161-2.206 4.569-4.614 3.335m-11.828-4.466s2.116-0.306 4.68-1.481c2.564-1.174 4.178-2.788 4.178-2.788m-56.018-37.106-3.207-10.629m13.467 10.911 3.301-11.066m67.419 57.362c-2.206 4.426-3.175 1.52-10.367 4.93 0 0-8.701 6.454-11.849 6.454 0 0-3.172 0.789-8.778-4.818-2.45-2.449-5.699-6.167-4.943-9.891 1.098-5.063 11.731 1.521 11.731 1.521 5.047 3.031 2.434-0.988 2.434-0.988-10.287-22.769-24.501-33.399-39.106-36.68-4.627-1.146-6.453-1.465-10.26-2.668-1.838-0.623-1.666-1.936-0.589-3.013 0.567-0.674 1.55-1.144 0.809-2.089-1.138-1.14-3.176-1.629-4.682-1.629-1.574 0-3.977 0.489-5.116 1.629-0.742 0.945 0.242 1.415 0.808 2.089 1.078 1.077 1.25 2.39-0.589 3.013-3.806 1.203-5.632 1.522-10.259 2.668-14.604 3.281-28.819 13.911-39.106 36.68 0 0-2.613 4.019 2.434 0.988 0 0 10.633-6.584 11.731-1.521 0.756 3.724-2.494 7.442-4.943 9.891-5.607 5.607-8.778 4.818-8.778 4.818-3.148 0-11.85-6.454-11.85-6.454-7.191-3.41-8.16-0.504-10.366-4.93-1.9-4.755 3.397-7.331 3.397-7.331s3.656 3.424 7.496 5.247c1.268-0.423 3.595-2.972 4.003-3.659l-5.87-2.764c9.895-27.211 28.279-40.249 45.8-45.045v-0.011c4.21-1.305 5.39-1.407 12.163-3.088 0.412-0.128 0.722-0.241 0.157-1.415-1.219-2.208 0.711-3.089 1.954-3.86 1.759-0.949 3.837-1.537 6.026-1.574v-0.005c0.019 0 0.037 0.002 0.056 0.002s0.039-0.002 0.058-0.002v0.005c0.124 0.003 1.017 0.003 1.154 0v-0.005c0.019 0 0.038 0.002 0.057 0.002 0.02 0 0.038-0.002 0.057-0.002v0.005c2.189 0.037 4.267 0.625 6.026 1.574 1.243 0.771 3.172 1.652 1.954 3.86-0.565 1.174-0.255 1.287 0.157 1.415 6.773 1.681 7.953 1.783 12.163 3.088v0.011c17.521 4.796 35.905 17.834 45.8 45.045l-5.87 2.764c0.408 0.687 2.735 3.236 4.002 3.659 3.841-1.823 7.497-5.247 7.497-5.247s5.297 2.576 3.397 7.331z" stroke="#000" stroke-width="0.67" fill="none"/><path d="m88.845 559.68h-45.653l-0.295-28.472c-0.38-13.98 5.533-28.802 5.533-28.802 11.191-29.647 40.415-44.495 40.415-44.495m0 101.77h45.653l0.294-28.472c0.38-13.98-5.532-28.802-5.532-28.802-11.191-29.647-40.415-44.495-40.415-44.495" stroke="#000" stroke-miterlimit="8" stroke-width="1.464" fill="none"/><path d="m127.49 9.4648c-0.19 0.0071-0.4 0.027-0.47 0.0801-0.14 0.1075-0.02 1.4861-0.1 1.5861-0.08 0.097-1.52-0.06-1.63 0.086-0.12 0.147-0.15 1.674 0.03 1.832 0.18 0.16 1.45-0.084 1.62 0.051 0.07 0.066 0.13 1.534-0.01 1.691-2 1.103-2.24 3.655-0.51 4.955-0.36 0.363-0.76 0.997-1.06 0.943-3.72-0.656-7.03-2.709-10.87-2.402-2.15 0.173-3.9 1.687-4.28 3.859-0.67 3.912 2.14 6.918 3.5 10.237 0.44 1.049 0.82 2.458 0.75 3.67 0 0 13.24-0.001 13.42 0.002h0.01c0.17-0.003 13.42-0.002 13.42-0.002-0.07-1.212 0.31-2.621 0.74-3.67 1.36-3.319 4.17-6.325 3.5-10.237-0.37-2.172-2.13-3.686-4.27-3.859-3.84-0.307-7.15 1.746-10.88 2.402-0.3 0.054-0.69-0.58-1.06-0.943 1.73-1.3 1.49-3.852-0.5-4.955-0.14-0.157-0.09-1.625-0.01-1.691 0.16-0.135 1.44 0.109 1.62-0.051 0.18-0.158 0.14-1.685 0.02-1.832-0.11-0.146-1.55 0.011-1.63-0.086-0.08-0.1 0.04-1.4786-0.09-1.5861-0.14-0.1062-0.85-0.0801-0.87-0.0801-0.01 0-0.19-0.007-0.39 0zm-63.793 0.3692c-0.022 0-0.729-0.0235-0.861 0.084-0.136 0.107-0.016 1.484-0.098 1.584-0.08 0.097-1.518-0.06-1.634 0.086-0.114 0.147-0.152 1.674 0.029 1.832 0.181 0.159 1.456-0.084 1.619 0.051 0.079 0.066 0.13 1.536-0.008 1.693-1.999 1.103-2.233 3.653-0.506 4.953-0.362 0.363-0.763 0.996-1.06 0.944-3.723-0.657-7.036-2.708-10.873-2.401-2.148 0.173-3.901 1.685-4.276 3.858-0.671 3.911 2.138 6.917 3.5 10.236 0.433 1.049 0.812 2.459 0.744 3.67 0 0 13.245-0.001 13.42 0h0.004 0.006c0.175-0.001 13.42 0 13.42 0-0.066-1.211 0.312-2.621 0.744-3.67 1.363-3.319 4.171-6.325 3.5-10.236-0.374-2.173-2.128-3.685-4.275-3.858-3.838-0.307-7.15 1.744-10.873 2.401-0.298 0.052-0.697-0.581-1.061-0.944 1.728-1.3 1.494-3.85-0.506-4.953-0.136-0.157-0.086-1.627-0.007-1.693 0.162-0.135 1.435 0.108 1.617-0.051 0.181-0.158 0.145-1.685 0.031-1.832-0.116-0.146-1.556 0.011-1.635-0.086-0.082-0.1 0.04-1.477-0.096-1.584-0.133-0.1075-0.842-0.084-0.865-0.084zm52.263 10.467c0.94-0.02 1.88 0.211 2.95 0.529 1.8 0.534 3.23 1.256 5.5 1.979 0.52 0.168-0.42 0.141 0.93 2.886 0.62 1.254 1.05 3.738 0.81 5.11-0.35 1.963-1.44 3.212-2.35 3.218-0.59 0.002-1.07-0.222-1.5-0.603-0.6-0.521-1.09-1.384-0.93-1.893 0.13-0.171 1.74 0.075 1.86-0.084 0.11-0.161-0.2-1.414-0.38-1.578-0.18-0.161-1.64 0.055-1.83-0.103-0.2-0.159-0.38-1.715-0.58-1.809 0 0-1.53-0.23-1.65-0.01-0.11 0.219 0.52 1.517 0.42 1.737-0.11 0.222-2.15-0.194-2.18 0.035-0.04 0.229 0.11 1.373 0.31 1.541 0.19 0.17 2.09 0.182 2.09 0.182 0.4 0.301 0.5 0.914 0.5 1.541 0.01 0.795-0.61 1.203-1.6 0.929-1.84-0.515-3.92-4.578-5.28-7.342-0.99-2.031-1.43-4.928 1.18-5.923 0.6-0.228 1.16-0.33 1.73-0.342zm23.85 0c0.56 0.012 1.13 0.114 1.73 0.342 2.61 0.995 2.16 3.892 1.17 5.923-1.35 2.764-3.44 6.827-5.28 7.342-0.98 0.274-1.6-0.134-1.6-0.929 0-0.627 0.11-1.24 0.5-1.541 0 0 1.9-0.012 2.1-0.182 0.19-0.168 0.34-1.312 0.31-1.541-0.04-0.229-2.07 0.187-2.18-0.035-0.11-0.22 0.52-1.518 0.41-1.737-0.11-0.22-1.65 0.01-1.65 0.01-0.2 0.094-0.38 1.65-0.57 1.809-0.2 0.158-1.65-0.058-1.83 0.103-0.19 0.164-0.5 1.417-0.38 1.578 0.11 0.159 1.72-0.087 1.85 0.084 0.16 0.509-0.33 1.372-0.92 1.893-0.44 0.381-0.91 0.605-1.51 0.603-0.91-0.006-2-1.255-2.34-3.218-0.24-1.372 0.18-3.856 0.8-5.11 1.36-2.745 0.41-2.718 0.94-2.886 2.27-0.723 3.7-1.445 5.49-1.979 1.07-0.318 2.01-0.549 2.96-0.529zm-88.035 0.371c0.944-0.02 1.883 0.211 2.954 0.529 1.793 0.534 3.224 1.256 5.494 1.979 0.527 0.168-0.421 0.143 0.935 2.886 0.621 1.254 1.046 3.74 0.805 5.112-0.345 1.962-1.435 3.21-2.344 3.215-0.594 0.002-1.072-0.221-1.506-0.602-0.598-0.522-1.085-1.383-0.927-1.891 0.131-0.17 1.742 0.073 1.857-0.086 0.115-0.161-0.196-1.414-0.379-1.578-0.182-0.161-1.637 0.057-1.832-0.103-0.194-0.158-0.373-1.714-0.572-1.809 0 0-1.539-0.23-1.651-0.01-0.112 0.219 0.521 1.517 0.414 1.737-0.108 0.224-2.145-0.192-2.181 0.037-0.035 0.229 0.117 1.371 0.312 1.539 0.197 0.17 2.094 0.182 2.094 0.182 0.395 0.301 0.5 0.914 0.502 1.539 0.004 0.796-0.615 1.205-1.602 0.931-1.84-0.515-3.926-4.578-5.279-7.341-0.995-2.032-1.437-4.929 1.176-5.924 0.597-0.228 1.164-0.33 1.73-0.342zm23.848 0c0.566 0.012 1.131 0.114 1.729 0.342 2.611 0.995 2.167 3.892 1.173 5.924-1.353 2.763-3.438 6.826-5.277 7.341-0.986 0.274-1.604-0.135-1.602-0.931 0.002-0.625 0.106-1.238 0.502-1.539 0 0 1.898-0.012 2.094-0.182 0.196-0.168 0.349-1.31 0.313-1.539-0.037-0.229-2.072 0.187-2.182-0.037-0.106-0.22 0.527-1.518 0.414-1.737-0.112-0.22-1.65 0.01-1.65 0.01-0.2 0.095-0.379 1.651-0.573 1.809-0.196 0.16-1.649-0.058-1.832 0.103-0.182 0.164-0.491 1.417-0.378 1.578 0.116 0.159 1.724-0.084 1.857 0.086 0.156 0.508-0.329 1.369-0.928 1.891-0.434 0.381-0.913 0.604-1.508 0.602-0.908-0.005-2-1.253-2.343-3.215-0.242-1.372 0.183-3.858 0.804-5.112 1.358-2.743 0.412-2.718 0.94-2.886 2.269-0.723 3.697-1.445 5.492-1.979 1.07-0.318 2.012-0.549 2.955-0.529zm38.527 17.197v2.309h13.73 13.73v-2.309h-13.73-13.73zm-64.183 0.373v2.305h13.726 13.729v-2.305h-13.729-13.726zm47.66 40.268c-0.023 0-0.729-0.024-0.861 0.082-0.137 0.109-0.017 1.486-0.098 1.586-0.08 0.097-1.519-0.061-1.635 0.086-0.114 0.146-0.15 1.674 0.031 1.832 0.182 0.158 1.455-0.086 1.618 0.05 0.078 0.067 0.129 1.536-0.008 1.694-1.999 1.102-2.234 3.653-0.506 4.953-0.361 0.364-0.763 0.997-1.061 0.943-3.722-0.656-7.034-2.708-10.873-2.4-2.147 0.172-3.9 1.685-4.275 3.857-0.671 3.912 2.137 6.917 3.5 10.237 0.432 1.05 0.812 2.46 0.744 3.67h13.42 0.004 0.006 13.417c-0.07-1.21 0.31-2.62 0.75-3.67 1.36-3.32 4.17-6.325 3.5-10.237-0.38-2.172-2.13-3.685-4.28-3.857-3.84-0.308-7.15 1.744-10.87 2.4-0.299 0.054-0.697-0.579-1.062-0.943 1.732-1.3 1.492-3.851-0.506-4.953-0.136-0.158-0.087-1.627-0.008-1.694 0.163-0.136 1.436 0.108 1.616-0.05s0.15-1.686 0.03-1.832c-0.11-0.147-1.552 0.011-1.632-0.086-0.081-0.1 0.04-1.477-0.096-1.586-0.134-0.106-0.841-0.082-0.865-0.082zm-11.922 10.838c0.943-0.02 1.882 0.211 2.953 0.529 1.794 0.532 3.225 1.256 5.496 1.978 0.527 0.169-0.422 0.145 0.934 2.887 0.621 1.255 1.046 3.74 0.805 5.112-0.345 1.966-1.435 3.206-2.344 3.216-0.594 0-1.072-0.22-1.506-0.6-0.598-0.52-1.085-1.39-0.928-1.9 0.131-0.17 1.743 0.08 1.858-0.08s-0.197-1.415-0.379-1.578c-0.183-0.161-1.637 0.055-1.832-0.103-0.194-0.159-0.374-1.715-0.573-1.809 0 0-1.539-0.23-1.65-0.01-0.112 0.219 0.52 1.517 0.414 1.737-0.109 0.222-2.145-0.194-2.182 0.035-0.035 0.228 0.118 1.378 0.313 1.538 0.196 0.17 2.096 0.18 2.096 0.18 0.393 0.31 0.497 0.92 0.5 1.55 0.003 0.79-0.616 1.2-1.602 0.93-1.84-0.52-3.927-4.583-5.279-7.347-0.994-2.031-1.437-4.929 1.176-5.924 0.597-0.228 1.164-0.33 1.73-0.341zm23.845 0c0.57 0.011 1.14 0.113 1.73 0.341 2.61 0.995 2.17 3.893 1.18 5.924-1.36 2.764-3.44 6.827-5.28 7.347-0.99 0.27-1.61-0.14-1.6-0.93 0-0.63 0.1-1.24 0.5-1.55 0 0 1.9-0.01 2.09-0.18 0.2-0.16 0.35-1.31 0.31-1.538-0.03-0.229-2.07 0.187-2.18-0.035-0.1-0.22 0.53-1.518 0.42-1.737-0.12-0.22-1.65 0.01-1.65 0.01-0.2 0.094-0.38 1.65-0.58 1.809-0.19 0.158-1.65-0.058-1.83 0.103-0.18 0.163-0.49 1.418-0.37 1.578 0.11 0.16 1.72-0.09 1.85 0.08 0.16 0.51-0.33 1.38-0.93 1.9-0.43 0.38-0.91 0.6-1.5 0.6-0.91-0.01-2.004-1.25-2.349-3.216-0.241-1.372 0.184-3.857 0.809-5.112 1.35-2.742 0.41-2.718 0.94-2.887 2.26-0.722 3.69-1.446 5.49-1.978 1.07-0.318 2.01-0.549 2.95-0.529zm-25.654 17.572v2.3h13.727 13.727v-2.3h-13.727-13.727z" transform="matrix(.8 0 0 -.8 11.432 561.27)" fill="#fff"/><path d="m168.31 98.473c-0.04-0.016-0.1-0.016-0.13 0.007-0.12 0.298-0.2 0.512-0.36 0.86-0.14 0.314-0.28 0.608-0.44 0.92-0.01 0.09 0.13 0.16 0.22 0.11l0.1-0.17c0.13-0.19 0.23-0.298 0.38-0.319 0.29-0.041 1 0.269 1.58 0.529l1.5 0.67c0.12 0.06 0.16 0.08 0.17 0.11-0.08 0.06-1.23 0.44-1.74 0.62l-1.19 0.44c-0.42 0.15-1.79 0.59-2.18 0.58-0.07 0.2-0.15 0.39-0.22 0.56-0.1 0.21-0.29 0.65-0.46 0.94-0.01 0.1 0.14 0.17 0.21 0.14l0.08-0.11c0.07-0.11 0.24-0.3 0.35-0.36 0.34-0.18 0.46-0.11 1.06 0.16l1.82 0.82c0.6 0.27 1.27 0.57 1.46 0.78 0.1 0.12 0.07 0.28 0.02 0.44l-0.04 0.19c0.02 0.09 0.16 0.14 0.23 0.09 0.11-0.29 0.2-0.51 0.35-0.85 0.14-0.31 0.29-0.62 0.44-0.91 0.01-0.09-0.13-0.17-0.22-0.12l-0.1 0.17c-0.12 0.19-0.23 0.31-0.37 0.33-0.3 0.03-1.01-0.28-1.58-0.54l-1.5-0.68c-0.41-0.18-0.49-0.22-0.48-0.24 0.18-0.09 0.59-0.21 1.38-0.49l2.9-0.96c0.89-0.29 1.26-0.41 1.48-0.47 0.05-0.09 0.07-0.22 0.01-0.32-0.18-0.05-1.13-0.48-1.36-0.58l-1.83-0.832c-0.61-0.272-1.28-0.573-1.46-0.793-0.1-0.112-0.07-0.262-0.02-0.425l0.04-0.204c-0.01-0.044-0.05-0.077-0.1-0.093zm-139.44 5.247c-0.045 0.02-0.086 0.06-0.097 0.1l0.068 0.19c0.151 0.39 0.166 0.48-0.625 0.89l-2.777 1.45c-0.793 0.41-0.851 0.35-1.092 0l-0.114-0.16c-0.081-0.03-0.211 0.05-0.209 0.12 0.199 0.35 0.402 0.72 0.584 1.07 0.184 0.35 0.365 0.72 0.534 1.08 0.062 0.04 0.2-0.02 0.222-0.1l-0.068-0.19c-0.151-0.4-0.166-0.48 0.625-0.89l2.777-1.45c0.793-0.41 0.853-0.35 1.094 0l0.113 0.16c0.082 0.03 0.212-0.05 0.209-0.13-0.198-0.34-0.392-0.7-0.576-1.05-0.192-0.37-0.373-0.73-0.541-1.09-0.032-0.02-0.081-0.02-0.127 0zm136.25 1.35c-0.04 0.11-0.28 0.56-0.55 1.06l-0.82 1.48c-0.18 0.34-0.39 0.7-0.57 0.98 0 0.08 0.13 0.16 0.21 0.14l0.08-0.12c0.25-0.33 0.31-0.39 1.09 0.04l2.75 1.51c0.78 0.42 0.77 0.51 0.6 0.89l-0.12 0.31c0.02 0.08 0.16 0.14 0.22 0.1 0.18-0.36 0.43-0.84 0.61-1.18l0.49-0.88c0.5-0.91 0.87-1.57 1.07-1.9-0.14-0.22-0.6-0.7-0.89-0.92-0.1 0.01-0.19 0.13-0.18 0.23 0.45 0.6 0.57 0.88 0.01 1.86-0.35 0.65-0.48 0.75-0.64 0.79-0.19 0.04-0.46-0.09-0.84-0.29l-0.93-0.52c-0.19-0.1-0.2-0.11-0.1-0.29l0.2-0.38c0.37-0.67 0.46-0.79 0.8-0.68l0.32 0.11c0.08-0.04 0.16-0.18 0.13-0.25-0.24-0.12-0.5-0.25-0.78-0.4s-0.53-0.31-0.73-0.43c-0.08 0-0.16 0.15-0.14 0.24l0.22 0.19c0.28 0.23 0.22 0.37-0.15 1.04l-0.2 0.38c-0.1 0.17-0.11 0.18-0.31 0.07l-1.24-0.68c-0.42-0.23-0.44-0.24-0.26-0.58l0.29-0.52c0.11-0.2 0.26-0.43 0.41-0.58 0.19-0.22 0.44-0.23 0.94-0.12 0.07-0.04 0.14-0.2 0.1-0.26-0.34-0.13-0.95-0.4-1.09-0.44zm-134.9 1.34c-0.047 0.02-0.086 0.06-0.092 0.1l0.049 0.13c0.044 0.12 0.116 0.37 0.103 0.5-0.05 0.39-0.171 0.45-0.732 0.79l-1.707 1.03c-0.569 0.35-1.196 0.73-1.481 0.76-0.147 0.02-0.259-0.1-0.369-0.24l-0.138-0.14c-0.089-0.03-0.203 0.06-0.202 0.14 0.178 0.26 0.312 0.46 0.508 0.79 0.178 0.29 0.353 0.59 0.51 0.89 0.069 0.06 0.21-0.01 0.219-0.11l-0.08-0.18c-0.088-0.21-0.125-0.37-0.059-0.51 0.136-0.26 0.794-0.67 1.334-0.99l1.406-0.86c0.382-0.23 0.461-0.27 0.475-0.25-0.029 0.19-0.154 0.61-0.375 1.43l-0.83 2.96c-0.255 0.92-0.364 1.29-0.442 1.5 0.05 0.1 0.144 0.19 0.26 0.21 0.152-0.13 1.038-0.67 1.254-0.8l1.721-1.04c0.569-0.35 1.195-0.72 1.484-0.75 0.148-0.02 0.255 0.09 0.365 0.23l0.145 0.15c0.088 0.04 0.2-0.05 0.199-0.14-0.184-0.27-0.31-0.46-0.511-0.79-0.183-0.3-0.349-0.59-0.516-0.9-0.069-0.07-0.21 0.01-0.219 0.11l0.088 0.19c0.088 0.21 0.118 0.36 0.053 0.49-0.133 0.27-0.79 0.68-1.33 1.01l-1.405 0.85c-0.115 0.07-0.152 0.09-0.187 0.08-0.004-0.1 0.326-1.28 0.461-1.81l0.31-1.24c0.11-0.43 0.509-1.82 0.739-2.14-0.127-0.18-0.247-0.36-0.344-0.52-0.118-0.19-0.381-0.61-0.529-0.92-0.034-0.03-0.088-0.03-0.135-0.01zm132.76 2.9c-0.05-0.02-0.1-0.03-0.14 0-0.13 0.22-0.29 0.48-0.5 0.79-0.11 0.16-0.28 0.4-0.43 0.59 0.38 0.43 0.64 0.94 0.94 1.49l0.88 1.59c0.22 0.38 0.34 0.61 0.47 0.87-0.23-0.01-0.71-0.06-0.86-0.08l-2.16-0.27c-0.5-0.07-0.99-0.13-1.43-0.38-0.16 0.28-0.34 0.54-0.51 0.8-0.18 0.27-0.32 0.46-0.48 0.67-0.01 0.01 0.01 0.02 0.01 0.03-0.02 0-0.03-0.02-0.05-0.01-0.14 0.2-0.32 0.43-0.52 0.68-0.18 0.21-0.38 0.44-0.62 0.71-0.01 0.08 0.09 0.17 0.18 0.17l0.21-0.16c0.21-0.17 0.28-0.15 0.45 0.18 0.59 1.09 1.15 2.23 1.67 3.27-0.2-0.05-0.74-0.18-1.13-0.3l-1.57-0.46c-0.89-0.26-1.08-0.32-1.14-0.37-0.05-0.04-0.04-0.12 0.05-0.3l0.1-0.2c0.01-0.1-0.1-0.18-0.19-0.15-0.28 0.37-0.47 0.61-0.72 0.92-0.22 0.26-0.47 0.55-0.7 0.81-0.04 0.08 0.08 0.18 0.17 0.17l0.16-0.14c0.28-0.23 0.42-0.22 1.01-0.05l3.73 1.05c0.37 0.1 0.78 0.25 1.11 0.38 0.05-0.02 0.1-0.05 0.14-0.1s0.07-0.11 0.06-0.14c-0.23-0.39-0.73-1.34-1.1-2.1l-0.5-1.04c-0.4-0.85-0.68-1.4-0.83-1.85-0.1-0.27-0.02-0.46 0.08-0.65l0.1-0.19c0.01 0 0.01 0.01 0.02 0.01l0.21-0.22c0.23-0.26 0.46-0.27 0.78-0.05 0.43 0.29 0.98 0.72 1.44 1.07 0.7 0.52 1.14 0.84 1.54 1.2 0.4 0.33 0.46 0.46 0.27 0.84l-0.07 0.13c0.01 0.07 0.14 0.16 0.22 0.11 0.18-0.29 0.35-0.56 0.51-0.79 0.18-0.28 0.34-0.5 0.54-0.76 0.01-0.08-0.13-0.17-0.2-0.14l-0.21 0.21c-0.26 0.28-0.38 0.21-0.84-0.1-0.57-0.38-1.18-0.81-1.6-1.11-0.28-0.21-0.82-0.6-1.15-0.84l0.01-0.02c0.27 0.06 0.84 0.15 1.23 0.21l1.78 0.25c0.46 0.07 1.36 0.21 1.82 0.34 0.06-0.03 0.14-0.14 0.13-0.19-0.24-0.35-0.77-1.24-1.09-1.82l-0.81-1.46c-0.18-0.33-0.32-0.57-0.58-1.03l0.02-0.01c0.13 0.09 0.38 0.26 0.64 0.44l2.21 1.48c0.48 0.32 0.52 0.38 0.36 0.7l-0.09 0.22c-0.01 0.11 0.14 0.16 0.21 0.13 0.2-0.34 0.41-0.66 0.64-1 0.2-0.3 0.39-0.58 0.62-0.88 0.03-0.1-0.12-0.21-0.19-0.16l-0.18 0.2c-0.19 0.21-0.29 0.26-0.77-0.04-1.07-0.64-2.12-1.32-3.15-2.01-0.37-0.25-0.44-0.41-0.26-0.76l0.12-0.26c0.01-0.05-0.03-0.1-0.07-0.12zm-127.5 5.18c-0.077-0.05-0.212 0.05-0.209 0.13l0.125 0.22c0.206 0.38 0.233 0.46-0.469 0.98l-2.51 1.87c-0.702 0.53-0.772 0.48-1.066 0.17l-0.196-0.19c-0.082-0.04-0.199 0.08-0.183 0.16 0.24 0.29 0.516 0.65 0.791 1.01l0.558 0.76c0.604 0.8 1.059 1.43 1.272 1.74 0.247-0.04 0.879-0.27 1.205-0.42 0.028-0.08-0.037-0.21-0.125-0.26-0.942 0.19-1.063 0.1-1.662-0.7-0.43-0.58-0.462-0.74-0.432-0.89 0.034-0.2 0.266-0.39 0.604-0.64l2.369-1.77c0.702-0.53 0.772-0.47 1.072-0.17l0.145 0.14c0.077 0.03 0.208-0.08 0.185-0.16-0.25-0.31-0.499-0.63-0.736-0.95-0.248-0.33-0.482-0.66-0.738-1.03zm2.154 2.96c-0.077-0.06-0.194 0.04-0.199 0.13l0.105 0.19c0.179 0.32 0.141 0.46-0.133 1.01l-1.722 3.48c-0.169 0.35-0.394 0.72-0.584 1.02 0.009 0.05 0.036 0.11 0.076 0.16s0.098 0.1 0.129 0.09c0.429-0.15 1.457-0.46 2.277-0.67l1.127-0.28c0.913-0.23 1.514-0.39 1.987-0.45 0.284-0.04 0.458 0.08 0.623 0.21l0.175 0.15c-0.002 0-0.011 0.01-0.011 0.02l0.179 0.25c0.21 0.28 0.179 0.51-0.103 0.78-0.366 0.36-0.9 0.82-1.334 1.19-0.656 0.58-1.06 0.96-1.488 1.28-0.404 0.32-0.545 0.36-0.883 0.08l-0.121-0.09c-0.068-0.01-0.181 0.1-0.155 0.19 0.259 0.23 0.493 0.46 0.696 0.67 0.233 0.23 0.423 0.44 0.644 0.69 0.075 0.03 0.189-0.09 0.18-0.17l-0.172-0.25c-0.23-0.31-0.14-0.41 0.256-0.8 0.492-0.49 1.039-1 1.418-1.35 0.264-0.23 0.744-0.68 1.051-0.96l0.013 0.02c-0.104 0.25-0.311 0.79-0.443 1.16l-0.59 1.71c-0.155 0.44-0.471 1.3-0.687 1.73 0.018 0.07 0.114 0.16 0.164 0.16 0.395-0.16 1.376-0.49 2.011-0.69l1.602-0.49c0.36-0.11 0.628-0.2 1.129-0.35l0.013 0.01c-0.113 0.12-0.329 0.33-0.558 0.55l-1.897 1.87c-0.408 0.4-0.475 0.43-0.763 0.21l-0.201-0.14c-0.099-0.03-0.189 0.1-0.163 0.18 0.29 0.27 0.569 0.54 0.866 0.84 0.252 0.26 0.494 0.52 0.754 0.8 0.093 0.05 0.224-0.07 0.185-0.16l-0.154-0.21c-0.178-0.23-0.204-0.34 0.18-0.76 0.843-0.92 1.718-1.8 2.607-2.68 0.317-0.31 0.482-0.35 0.797-0.1l0.238 0.18c0.1 0.03 0.201-0.09 0.154-0.19-0.188-0.17-0.414-0.38-0.679-0.65-0.139-0.15-0.342-0.36-0.5-0.55-0.504 0.28-1.062 0.42-1.66 0.61l-1.747 0.53c-0.421 0.14-0.678 0.21-0.953 0.28 0.057-0.22 0.193-0.68 0.244-0.83l0.692-2.08c0.166-0.47 0.313-0.95 0.648-1.33-0.251-0.22-0.472-0.44-0.693-0.67-0.234-0.24-0.401-0.42-0.578-0.62-0.011-0.01-0.023 0.01-0.035 0.01 0.007-0.02 0.026-0.03 0.023-0.05-0.174-0.19-0.369-0.41-0.576-0.66-0.184-0.22-0.374-0.46-0.598-0.76-0.077-0.03-0.186 0.05-0.197 0.14l0.121 0.24c0.128 0.25 0.092 0.31-0.26 0.42-1.186 0.36-2.425 0.69-3.552 0.99 0.092-0.19 0.317-0.7 0.505-1.07l0.741-1.45c0.425-0.83 0.521-1.01 0.58-1.06 0.051-0.04 0.13-0.01 0.289 0.11l0.183 0.15c0.098 0.02 0.195-0.07 0.182-0.17-0.317-0.35-0.52-0.59-0.779-0.9-0.224-0.27-0.465-0.57-0.676-0.85zm116.32 3.58c-0.25 0.3-0.51 0.6-0.78 0.88-0.28 0.3-0.55 0.59-0.86 0.9-0.03 0.08 0.09 0.19 0.16 0.18l0.2-0.16c0.32-0.27 0.39-0.31 1.04 0.29l2.3 2.12c0.64 0.6 0.61 0.68 0.36 1.01l-0.15 0.23c-0.02 0.08 0.12 0.18 0.19 0.15 0.24-0.28 0.53-0.61 0.84-0.94l0.63-0.68c0.67-0.73 1.19-1.28 1.46-1.54-0.1-0.23-0.44-0.81-0.65-1.1-0.08-0.02-0.19 0.07-0.22 0.16 0.36 0.89 0.29 1.02-0.37 1.74-0.48 0.52-0.63 0.58-0.79 0.58-0.19 0-0.43-0.19-0.74-0.48l-2.17-2.01c-0.64-0.59-0.6-0.67-0.36-1.01l0.1-0.17c0.02-0.08-0.11-0.19-0.19-0.15zm-3.99 4.14c-0.36 0.22-0.67 0.37-1.02 0.68-0.96 0.86-0.97 1.82-0.42 2.44 0.51 0.57 1.29 0.56 2.02 0.38l0.41-0.1c0.73-0.18 1.17-0.05 1.49 0.31 0.34 0.38 0.32 0.92-0.18 1.37-0.65 0.58-1.6 0.22-2.01 0.01-0.09 0-0.2 0.11-0.18 0.21 0.34 0.39 0.81 0.75 1.05 0.77 0.2-0.04 0.71-0.16 1.32-0.7 0.95-0.86 1.07-1.88 0.43-2.59-0.57-0.63-1.39-0.6-2.01-0.43l-0.59 0.16c-0.64 0.17-1.08 0.06-1.31-0.2-0.3-0.34-0.38-0.86 0.15-1.33 0.56-0.5 1.16-0.29 1.56-0.05 0.09-0.01 0.21-0.12 0.19-0.21-0.26-0.29-0.7-0.65-0.9-0.72zm-2.56 2.27c-0.18 0.16-0.41 0.35-0.66 0.54-0.22 0.18-0.46 0.36-0.76 0.57-0.03 0.07 0.05 0.19 0.14 0.2l0.24-0.11c0.24-0.12 0.3-0.08 0.4 0.27 0.34 1.19 0.64 2.43 0.91 3.56-0.19-0.09-0.68-0.34-1.04-0.54l-1.42-0.79c-0.82-0.45-0.99-0.55-1.04-0.61-0.04-0.05-0.01-0.13 0.12-0.28l0.14-0.18c0.03-0.09-0.06-0.19-0.15-0.19-0.36 0.31-0.6 0.5-0.91 0.74-0.27 0.22-0.57 0.44-0.86 0.64-0.05 0.08 0.04 0.2 0.13 0.21l0.19-0.1c0.32-0.17 0.46-0.12 1 0.17l3.4 1.83c0.35 0.18 0.71 0.42 1.01 0.62 0.05-0.01 0.1-0.03 0.15-0.07s0.1-0.09 0.1-0.13c-0.15-0.43-0.43-1.46-0.62-2.28l-0.26-1.13c-0.21-0.91-0.36-1.51-0.41-1.98-0.03-0.29 0.08-0.45 0.22-0.61l0.14-0.17c0-0.08-0.08-0.2-0.16-0.18zm-99.863 0.7c-0.076-0.02-0.182 0.09-0.174 0.18l0.133 0.15c0.286 0.31 0.33 0.39-0.258 1.06l-2.066 2.35c-0.589 0.67-0.666 0.64-1.018 0.4l-0.166-0.11c-0.086 0-0.177 0.12-0.146 0.19 0.31 0.25 0.633 0.53 0.931 0.79s0.599 0.53 0.885 0.81c0.078 0.02 0.183-0.09 0.174-0.18l-0.131-0.15c-0.285-0.31-0.331-0.39 0.258-1.06l2.064-2.35c0.589-0.67 0.666-0.64 1.018-0.4l0.166 0.11c0.086 0 0.179-0.12 0.147-0.19-0.309-0.25-0.621-0.51-0.918-0.77-0.313-0.28-0.611-0.55-0.899-0.83zm49.504 0.49l-0.566 0.22-0.426 1.02 0.693 0.38 0.629-0.33-0.33-1.29zm-47.285 1.53c-0.088-0.03-0.196 0.1-0.176 0.18l0.092 0.1c0.085 0.09 0.245 0.3 0.277 0.42 0.096 0.38 0.009 0.48-0.388 1.01l-1.207 1.58c-0.403 0.53-0.847 1.12-1.098 1.25-0.131 0.07-0.281 0-0.432-0.08l-0.183-0.09c-0.093 0.01-0.166 0.13-0.133 0.21 0.26 0.18 0.46 0.32 0.762 0.55 0.272 0.2 0.546 0.42 0.802 0.64 0.087 0.03 0.19-0.09 0.16-0.19l-0.142-0.14c-0.159-0.16-0.25-0.29-0.238-0.44 0.031-0.3 0.492-0.92 0.875-1.42l0.994-1.31c0.27-0.36 0.325-0.43 0.347-0.41 0.045 0.19 0.081 0.62 0.176 1.46l0.318 3.07c0.099 0.94 0.134 1.33 0.141 1.56 0.081 0.07 0.203 0.12 0.317 0.09 0.095-0.17 0.722-1 0.875-1.2l1.216-1.6c0.403-0.53 0.845-1.11 1.104-1.25 0.132-0.07 0.274 0 0.426 0.08l0.191 0.1c0.094-0.01 0.164-0.13 0.133-0.21-0.269-0.18-0.459-0.32-0.768-0.55-0.28-0.21-0.54-0.42-0.81-0.65-0.087-0.03-0.192 0.09-0.162 0.19l0.148 0.14c0.159 0.16 0.245 0.29 0.232 0.44-0.022 0.3-0.484 0.92-0.867 1.43l-0.992 1.3c-0.081 0.11-0.108 0.14-0.144 0.15-0.042-0.1-0.169-1.32-0.237-1.85l-0.166-1.27c-0.057-0.45-0.198-1.89-0.101-2.27-0.183-0.12-0.359-0.24-0.51-0.35-0.179-0.14-0.58-0.43-0.832-0.67zm92.534 1.3c-0.19 0.14-0.45 0.32-0.76 0.52-0.16 0.11-0.41 0.26-0.62 0.38 0.18 0.54 0.21 1.12 0.28 1.74l0.19 1.81c0.05 0.43 0.08 0.7 0.09 0.98-0.2-0.1-0.62-0.33-0.76-0.41l-1.88-1.1c-0.43-0.26-0.86-0.5-1.17-0.9-0.26 0.2-0.52 0.37-0.78 0.54-0.27 0.18-0.48 0.3-0.71 0.43-0.05 0.07 0.03 0.21 0.11 0.23l0.28-0.13c0.31-0.14 0.52-0.07 0.74 0.26 0.28 0.43 0.62 1.05 0.9 1.55 0.44 0.75 0.73 1.22 0.96 1.71 0.23 0.46 0.24 0.6-0.09 0.87l-0.11 0.1c-0.02 0.07 0.06 0.2 0.15 0.19 0.28-0.2 0.55-0.38 0.78-0.54 0.28-0.18 0.51-0.32 0.79-0.48 0.04-0.07-0.04-0.21-0.12-0.21l-0.27 0.11c-0.36 0.16-0.44 0.05-0.74-0.41-0.38-0.58-0.77-1.22-1.04-1.66-0.18-0.3-0.52-0.86-0.73-1.22l0.01-0.01c0.23 0.16 0.72 0.47 1.05 0.68l1.55 0.92c0.4 0.24 1.17 0.72 1.54 1.02 0.07 0 0.18-0.08 0.19-0.13-0.08-0.41-0.22-1.44-0.29-2.09l-0.18-1.66c-0.04-0.37-0.07-0.65-0.13-1.17l0.02-0.01c0.08 0.13 0.25 0.38 0.43 0.65l1.45 2.23c0.32 0.48 0.33 0.55 0.06 0.79l-0.18 0.16c-0.04 0.09 0.07 0.21 0.15 0.2 0.32-0.23 0.63-0.44 0.98-0.67 0.3-0.2 0.59-0.38 0.92-0.57 0.06-0.08-0.03-0.23-0.12-0.21l-0.24 0.1c-0.26 0.13-0.37 0.13-0.7-0.33-0.73-1.01-1.43-2.04-2.11-3.09-0.24-0.37-0.25-0.54 0.05-0.79l0.22-0.2c0.05-0.09-0.06-0.21-0.16-0.18zm-86.716 3.03c-0.079-0.01-0.166 0.11-0.144 0.2l0.113 0.09c0.326 0.27 0.381 0.34-0.094 1.09l-1.67 2.65c-0.476 0.76-0.557 0.74-0.937 0.55l-0.301-0.15c-0.085 0.02-0.159 0.15-0.115 0.21 0.352 0.21 0.822 0.49 1.158 0.7l0.869 0.55c0.893 0.56 1.543 0.98 1.869 1.21 0.228-0.13 0.736-0.56 0.971-0.83-0.001-0.1-0.117-0.21-0.217-0.2-0.63 0.41-0.928 0.51-1.887-0.11-0.641-0.41-0.733-0.55-0.763-0.7-0.038-0.2 0.107-0.46 0.336-0.83l0.57-0.9c0.113-0.18 0.13-0.19 0.305-0.08l0.365 0.23c0.664 0.42 0.783 0.52 0.648 0.85l-0.125 0.32c0.035 0.08 0.18 0.17 0.248 0.14 0.137-0.23 0.278-0.49 0.45-0.76 0.166-0.26 0.342-0.51 0.47-0.7-0.002-0.08-0.147-0.17-0.24-0.16l-0.205 0.21c-0.246 0.27-0.38 0.2-1.043-0.22l-0.367-0.23c-0.175-0.11-0.179-0.12-0.063-0.31l0.76-1.2c0.256-0.41 0.264-0.42 0.592-0.22l0.512 0.33c0.205 0.13 0.424 0.29 0.568 0.45 0.209 0.21 0.211 0.46 0.072 0.95 0.034 0.08 0.196 0.16 0.264 0.12 0.146-0.33 0.454-0.93 0.5-1.07-0.108-0.04-0.554-0.32-1.041-0.62l-1.459-0.92c-0.335-0.21-0.688-0.44-0.969-0.64zm79.846 1.32c-0.33 0.2-0.67 0.41-1.01 0.6-0.35 0.19-0.7 0.38-1.05 0.56-0.05 0.06 0.02 0.2 0.1 0.22l0.18-0.07c0.39-0.16 0.47-0.18 0.91 0.6l1.53 2.73c0.44 0.78 0.38 0.84 0.04 1.09l-0.15 0.12c-0.03 0.08 0.06 0.2 0.13 0.2 0.33-0.2 0.69-0.42 1.03-0.61s0.69-0.37 1.04-0.55c0.05-0.06-0.02-0.2-0.1-0.22l-0.19 0.07c-0.38 0.16-0.46 0.18-0.9-0.6l-1.53-2.73c-0.44-0.78-0.39-0.84-0.05-1.09l0.16-0.12c0.03-0.08-0.06-0.21-0.14-0.2zm-3.52 2.26c-0.46-0.02-1.02 0.18-1.68 0.52-0.87 0.43-1.43 0.75-1.77 0.96-0.05 0.07 0.01 0.19 0.09 0.22l0.22-0.08c0.39-0.15 0.44-0.06 0.8 0.66l1.38 2.76c0.39 0.8 0.33 0.86-0.02 1.09l-0.16 0.11c-0.03 0.08 0.04 0.21 0.12 0.21 0.34-0.19 0.71-0.38 1.06-0.56 0.3-0.15 0.65-0.29 0.99-0.46 0.91-0.45 1.37-0.84 1.59-1.32 0.23-0.46 0.16-0.89-0.01-1.24-0.43-0.85-1.28-0.89-1.93-0.68-0.06 0.01-0.08 0-0.09-0.01 0-0.02 0-0.05 0.03-0.07 0.47-0.45 0.64-0.96 0.42-1.4-0.24-0.48-0.58-0.69-1.04-0.71zm-69.449 0.29c-0.182 0.24-0.525 0.66-0.855 1.01-0.003 0.09 0.159 0.19 0.236 0.17 0.59-0.48 0.85-0.46 1.602-0.11l0.457 0.21c0.212 0.1 0.215 0.12 0.066 0.44l-1.533 3.3c-0.376 0.81-0.461 0.8-0.86 0.65l-0.361-0.12c-0.075 0.01-0.137 0.17-0.086 0.23 0.53 0.23 0.919 0.4 1.278 0.57 0.36 0.16 0.723 0.34 1.191 0.58 0.079 0 0.15-0.14 0.117-0.22l-0.279-0.17c-0.366-0.21-0.429-0.27-0.053-1.08l1.533-3.3c0.15-0.32 0.165-0.33 0.377-0.23l0.465 0.21c0.875 0.41 0.962 0.63 0.791 1.27 0.049 0.09 0.196 0.14 0.266 0.1 0.065-0.19 0.277-0.55 0.478-0.85 0 0.02-0.009 0.05 0 0.06l0.188 0.12c0.317 0.18 0.354 0.32 0.404 0.93l0.299 3.87c0.035 0.39 0.033 0.83 0.021 1.18 0.035 0.04 0.088 0.08 0.147 0.1 0.06 0.02 0.135 0.03 0.16 0.01 0.288-0.35 1.015-1.14 1.611-1.74l0.827-0.82c0.666-0.66 1.102-1.11 1.474-1.4 0.226-0.18 0.433-0.17 0.643-0.14l0.226 0.03c0.065-0.04 0.118-0.17 0.065-0.23-0.244-0.07-0.527-0.16-0.832-0.27-0.273-0.1-0.559-0.21-0.901-0.35-0.082 0.02-0.137 0.14-0.099 0.23l0.226 0.14c0.235 0.14 0.239 0.22-0.01 0.49-0.832 0.92-1.733 1.83-2.546 2.67-0.02-0.21-0.082-0.76-0.108-1.18l-0.111-1.62c-0.061-0.94-0.066-1.14-0.041-1.21 0.022-0.06 0.106-0.08 0.306-0.05l0.229 0.03c0.096-0.03 0.132-0.16 0.072-0.24-0.455-0.14-0.746-0.23-1.129-0.37-0.331-0.12-0.692-0.26-1.017-0.39-0.004 0-0.005 0.01-0.008 0.01 0.037-0.05 0.079-0.13 0.111-0.17-0.005-0.03-0.038-0.06-0.088-0.09-0.032-0.01-0.072-0.01-0.111-0.01-0.18 0.13-0.315 0.09-0.715-0.09l-3.332-1.55c-0.556-0.26-0.666-0.32-0.619-0.53-0.006-0.03-0.036-0.05-0.068-0.07-0.042-0.02-0.078-0.02-0.104-0.01zm68.419 0.34c0.4-0.07 0.83 0.06 1.07 0.56 0.34 0.68 0.14 1.13-0.61 1.5-0.31 0.16-0.34 0.16-0.44-0.04l-0.68-1.36c-0.15-0.3-0.13-0.33 0.27-0.53 0.12-0.06 0.25-0.1 0.39-0.13zm-3.48 1.24c-0.1 0.06-0.57 0.27-1.09 0.49l-1.55 0.66c-0.36 0.15-0.75 0.3-1.06 0.42-0.06 0.06-0.01 0.2 0.07 0.23l0.14-0.04c0.41-0.11 0.49-0.12 0.84 0.71l1.22 2.88c0.35 0.82 0.29 0.88-0.08 1.08l-0.29 0.16c-0.03 0.07 0.04 0.21 0.11 0.21 0.36-0.17 0.86-0.39 1.21-0.54l0.93-0.39c0.96-0.4 1.66-0.69 2.02-0.83 0.03-0.26-0.04-0.92-0.13-1.27-0.08-0.06-0.23-0.02-0.28 0.07-0.02 0.74-0.11 1.05-1.15 1.47-0.68 0.29-0.84 0.28-0.99 0.22-0.17-0.08-0.31-0.36-0.48-0.75l-0.41-0.99c-0.09-0.19-0.08-0.21 0.1-0.29l0.39-0.16c0.71-0.3 0.86-0.35 1.05-0.05l0.19 0.29c0.08 0.02 0.24-0.04 0.26-0.12-0.12-0.24-0.25-0.51-0.37-0.8-0.13-0.29-0.23-0.58-0.31-0.79-0.07-0.04-0.22 0.02-0.26 0.11l0.05 0.28c0.09 0.36-0.05 0.43-0.75 0.73l-0.39 0.16c-0.19 0.08-0.21 0.08-0.29-0.12l-0.55-1.31c-0.19-0.45-0.2-0.46 0.15-0.61l0.55-0.23c0.22-0.09 0.47-0.18 0.68-0.21 0.28-0.05 0.49 0.1 0.81 0.49 0.08 0.02 0.24-0.06 0.25-0.14-0.19-0.31-0.5-0.9-0.59-1.02zm5.04 0.86c0.48 0.02 0.88 0.27 1.12 0.76 0.33 0.67 0.02 1.25-0.53 1.52-0.69 0.34-0.91 0.1-1.25-0.58l-0.54-1.09c-0.07-0.15-0.08-0.2 0.27-0.38 0.33-0.16 0.65-0.24 0.93-0.23zm-11.13 1.9c-0.68 0-1.27 0.14-2.06 0.41-0.82 0.28-1.48 0.54-2.06 0.8-0.06 0.06-0.01 0.2 0.06 0.22l0.18-0.04c0.41-0.09 0.46 0 0.72 0.77l1.01 2.91c0.29 0.84 0.22 0.89-0.15 1.07l-0.18 0.09c-0.04 0.08 0.02 0.22 0.1 0.23 0.36-0.15 0.73-0.28 1.05-0.39 0.31-0.11 0.72-0.2 1.23-0.38 0.76-0.26 1.44-0.6 1.94-1.1 0.86-0.86 1.01-1.92 0.7-2.81-0.41-1.18-1.41-1.78-2.54-1.78zm-0.75 0.48c0.96-0.01 1.75 0.52 2.16 1.71 0.46 1.34 0.14 2.58-1.34 3.09-0.89 0.31-1.09-0.09-1.36-0.86l-0.97-2.8c-0.13-0.37-0.18-0.54-0.14-0.61s0.29-0.23 0.64-0.35 0.69-0.18 1.01-0.18zm-44.968 0.29c-1.542-0.11-2.811 0.78-3.172 2.23-0.361 1.46 0.454 3.04 2.43 3.53 1.766 0.44 3.376-0.44 3.775-2.05 0.37-1.49-0.336-3.1-2.357-3.6-0.23-0.06-0.456-0.09-0.676-0.11zm0.145 0.35c0.114 0.01 0.228 0.03 0.337 0.06 1.39 0.34 1.63 1.92 1.325 3.15-0.408 1.65-1.385 2.14-2.381 1.89-1.496-0.37-1.632-2.03-1.352-3.16 0.378-1.52 1.268-1.99 2.071-1.94zm40.563 0.23c-0.37 0.12-0.75 0.23-1.12 0.34-0.39 0.11-0.78 0.21-1.16 0.3-0.02 0.01-0.01 0.05-0.01 0.08-0.24 0.06-0.52 0.13-0.83 0.2-0.28 0.06-0.57 0.11-0.93 0.17-0.06 0.06-0.04 0.19 0.03 0.25h0.26c0.27 0 0.32 0.06 0.25 0.42-0.22 1.22-0.49 2.47-0.74 3.6-0.13-0.17-0.46-0.6-0.7-0.94l-0.94-1.33c-0.53-0.77-0.64-0.93-0.66-1.01-0.01-0.06 0.05-0.12 0.23-0.2l0.21-0.1c0.06-0.07 0.03-0.2-0.06-0.23-0.46 0.11-0.75 0.18-1.14 0.27-0.33 0.07-0.71 0.14-1.05 0.2-0.08 0.04-0.05 0.19 0.03 0.23h0.21c0.36-0.01 0.46 0.09 0.82 0.59l2.26 3.14c0.23 0.31 0.46 0.69 0.63 1 0.05 0.01 0.11 0.01 0.17 0s0.13-0.04 0.14-0.07c0.06-0.45 0.26-1.5 0.44-2.33l0.27-1.12c0.21-0.92 0.34-1.52 0.5-1.97 0.09-0.27 0.27-0.37 0.46-0.45l0.21-0.09c0.01-0.02 0-0.05 0-0.07l0.19-0.03c0.41-0.06 0.49-0.06 0.74 0.8l0.84 3.01c0.24 0.86 0.18 0.91-0.21 1.07l-0.18 0.08c-0.05 0.07 0 0.21 0.08 0.23 0.37-0.12 0.77-0.24 1.14-0.35 0.38-0.1 0.76-0.21 1.14-0.29 0.06-0.06 0.03-0.2-0.05-0.24l-0.19 0.02c-0.41 0.07-0.5 0.07-0.74-0.79l-0.85-3.02c-0.24-0.86-0.17-0.91 0.22-1.07l0.18-0.07c0.04-0.08-0.01-0.22-0.09-0.23z" transform="matrix(.8 0 0 -.8 11.432 561.27)"/></g></g></svg>
